<svg width="243" height="512" viewBox="0 0 243 512" fill="none" xmlns="http://www.w3.org/2000/svg">
<path d="M221.293 512C218.486 512.016 215.703 511.478 213.103 510.416C210.504 509.355 208.14 507.791 206.147 505.813L31.8533 331.52C21.9198 321.612 14.0387 309.841 8.66133 296.882C3.28395 283.923 0.515991 270.03 0.515991 256C0.515991 241.97 3.28395 228.077 8.66133 215.118C14.0387 202.159 21.9198 190.388 31.8533 180.48L206.147 6.18664C208.136 4.19756 210.497 2.61972 213.096 1.54324C215.695 0.46675 218.48 -0.0873108 221.293 -0.0873108C224.106 -0.0873108 226.892 0.46675 229.491 1.54324C232.09 2.61972 234.451 4.19756 236.44 6.18664C238.429 8.17573 240.007 10.5371 241.083 13.136C242.16 15.7349 242.714 18.5203 242.714 21.3333C242.714 24.1463 242.16 26.9318 241.083 29.5306C240.007 32.1295 238.429 34.4909 236.44 36.48L62.1467 210.773C50.1616 222.773 43.4296 239.04 43.4296 256C43.4296 272.96 50.1616 289.227 62.1467 301.227L236.44 475.52C238.44 477.503 240.027 479.863 241.11 482.462C242.193 485.062 242.75 487.85 242.75 490.667C242.75 493.483 242.193 496.271 241.11 498.871C240.027 501.471 238.44 503.83 236.44 505.813C234.447 507.791 232.083 509.355 229.483 510.416C226.884 511.478 224.101 512.016 221.293 512Z" fill="white"/>
</svg>
