<svg width="288" height="32" viewBox="0 0 288 32" fill="none" xmlns="http://www.w3.org/2000/svg">
<path d="M0.495625 17.04C0.495625 14.32 1.12229 11.88 2.37563 9.72C3.65563 7.56 5.37563 5.88 7.53563 4.68C9.72229 3.45333 12.109 2.84 14.6956 2.84C17.6556 2.84 20.2823 3.57333 22.5756 5.04C24.8956 6.48 26.5756 8.53333 27.6156 11.2H22.1356C21.4156 9.73333 20.4156 8.64 19.1356 7.92C17.8556 7.2 16.3756 6.84 14.6956 6.84C12.8556 6.84 11.2156 7.25333 9.77563 8.08C8.33563 8.90667 7.20229 10.0933 6.37563 11.64C5.57563 13.1867 5.17563 14.9867 5.17563 17.04C5.17563 19.0933 5.57563 20.8933 6.37563 22.44C7.20229 23.9867 8.33563 25.1867 9.77563 26.04C11.2156 26.8667 12.8556 27.28 14.6956 27.28C16.3756 27.28 17.8556 26.92 19.1356 26.2C20.4156 25.48 21.4156 24.3867 22.1356 22.92H27.6156C26.5756 25.5867 24.8956 27.64 22.5756 29.08C20.2823 30.52 17.6556 31.24 14.6956 31.24C12.0823 31.24 9.69563 30.64 7.53563 29.44C5.37563 28.2133 3.65563 26.52 2.37563 24.36C1.12229 22.2 0.495625 19.76 0.495625 17.04ZM40.5131 31.36C38.4331 31.36 36.5531 30.8933 34.8731 29.96C33.1931 29 31.8731 27.6667 30.9131 25.96C29.9531 24.2267 29.4731 22.2267 29.4731 19.96C29.4731 17.72 29.9665 15.7333 30.9531 14C31.9398 12.2667 33.2865 10.9333 34.9931 10C36.6998 9.06667 38.6065 8.6 40.7131 8.6C42.8198 8.6 44.7265 9.06667 46.4331 10C48.1398 10.9333 49.4865 12.2667 50.4731 14C51.4598 15.7333 51.9531 17.72 51.9531 19.96C51.9531 22.2 51.4465 24.1867 50.4331 25.92C49.4198 27.6533 48.0331 29 46.2731 29.96C44.5398 30.8933 42.6198 31.36 40.5131 31.36ZM40.5131 27.4C41.6865 27.4 42.7798 27.12 43.7931 26.56C44.8331 26 45.6731 25.16 46.3131 24.04C46.9531 22.92 47.2731 21.56 47.2731 19.96C47.2731 18.36 46.9665 17.0133 46.3531 15.92C45.7398 14.8 44.9265 13.96 43.9131 13.4C42.8998 12.84 41.8065 12.56 40.6331 12.56C39.4598 12.56 38.3665 12.84 37.3531 13.4C36.3665 13.96 35.5798 14.8 34.9931 15.92C34.4065 17.0133 34.1131 18.36 34.1131 19.96C34.1131 22.3333 34.7131 24.1733 35.9131 25.48C37.1398 26.76 38.6731 27.4 40.5131 27.4ZM65.5809 8.6C67.3143 8.6 68.8609 8.96 70.2209 9.68C71.6076 10.4 72.6876 11.4667 73.4609 12.88C74.2343 14.2933 74.6209 16 74.6209 18V31H70.1009V18.68C70.1009 16.7067 69.6076 15.2 68.6209 14.16C67.6343 13.0933 66.2876 12.56 64.5809 12.56C62.8743 12.56 61.5143 13.0933 60.5009 14.16C59.5143 15.2 59.0209 16.7067 59.0209 18.68V31H54.4609V8.96H59.0209V11.48C59.7676 10.5733 60.7143 9.86667 61.8609 9.36C63.0343 8.85333 64.2743 8.6 65.5809 8.6ZM83.7575 12.68V24.88C83.7575 25.7067 83.9442 26.3067 84.3175 26.68C84.7175 27.0267 85.3842 27.2 86.3175 27.2H89.1175V31H85.5175C83.4642 31 81.8908 30.52 80.7975 29.56C79.7042 28.6 79.1575 27.04 79.1575 24.88V12.68H76.5575V8.96H79.1575V3.48H83.7575V8.96H89.1175V12.68H83.7575ZM95.8803 12.16C96.547 11.04 97.427 10.1733 98.5203 9.56C99.6403 8.92 100.96 8.6 102.48 8.6V13.32H101.32C99.5336 13.32 98.1736 13.7733 97.2403 14.68C96.3336 15.5867 95.8803 17.16 95.8803 19.4V31H91.3203V8.96H95.8803V12.16ZM114.232 31.36C112.152 31.36 110.272 30.8933 108.592 29.96C106.912 29 105.592 27.6667 104.632 25.96C103.672 24.2267 103.192 22.2267 103.192 19.96C103.192 17.72 103.685 15.7333 104.672 14C105.659 12.2667 107.005 10.9333 108.712 10C110.419 9.06667 112.325 8.6 114.432 8.6C116.539 8.6 118.445 9.06667 120.152 10C121.859 10.9333 123.205 12.2667 124.192 14C125.179 15.7333 125.672 17.72 125.672 19.96C125.672 22.2 125.165 24.1867 124.152 25.92C123.139 27.6533 121.752 29 119.992 29.96C118.259 30.8933 116.339 31.36 114.232 31.36ZM114.232 27.4C115.405 27.4 116.499 27.12 117.512 26.56C118.552 26 119.392 25.16 120.032 24.04C120.672 22.92 120.992 21.56 120.992 19.96C120.992 18.36 120.685 17.0133 120.072 15.92C119.459 14.8 118.645 13.96 117.632 13.4C116.619 12.84 115.525 12.56 114.352 12.56C113.179 12.56 112.085 12.84 111.072 13.4C110.085 13.96 109.299 14.8 108.712 15.92C108.125 17.0133 107.832 18.36 107.832 19.96C107.832 22.3333 108.432 24.1733 109.632 25.48C110.859 26.76 112.392 27.4 114.232 27.4ZM132.74 1.4V31H128.18V1.4H132.74ZM161.477 3.2V6.92H149.677V15.12H158.877V18.84H149.677V31H145.117V3.2H161.477ZM166.023 6.04C165.196 6.04 164.503 5.76 163.943 5.2C163.383 4.64 163.103 3.94667 163.103 3.12C163.103 2.29333 163.383 1.6 163.943 1.04C164.503 0.479999 165.196 0.199998 166.023 0.199998C166.823 0.199998 167.503 0.479999 168.063 1.04C168.623 1.6 168.903 2.29333 168.903 3.12C168.903 3.94667 168.623 4.64 168.063 5.2C167.503 5.76 166.823 6.04 166.023 6.04ZM168.263 8.96V31H163.703V8.96H168.263ZM183.37 8.6C185.103 8.6 186.65 8.96 188.01 9.68C189.397 10.4 190.477 11.4667 191.25 12.88C192.023 14.2933 192.41 16 192.41 18V31H187.89V18.68C187.89 16.7067 187.397 15.2 186.41 14.16C185.423 13.0933 184.077 12.56 182.37 12.56C180.663 12.56 179.303 13.0933 178.29 14.16C177.303 15.2 176.81 16.7067 176.81 18.68V31H172.25V8.96H176.81V11.48C177.557 10.5733 178.503 9.86667 179.65 9.36C180.823 8.85333 182.063 8.6 183.37 8.6ZM194.707 19.88C194.707 17.6667 195.16 15.7067 196.067 14C197 12.2933 198.253 10.9733 199.827 10.04C201.427 9.08 203.187 8.6 205.107 8.6C206.84 8.6 208.347 8.94667 209.627 9.64C210.933 10.3067 211.973 11.1467 212.747 12.16V8.96H217.347V31H212.747V27.72C211.973 28.76 210.92 29.6267 209.587 30.32C208.253 31.0133 206.733 31.36 205.027 31.36C203.133 31.36 201.4 30.88 199.827 29.92C198.253 28.9333 197 27.5733 196.067 25.84C195.16 24.08 194.707 22.0933 194.707 19.88ZM212.747 19.96C212.747 18.44 212.427 17.12 211.787 16C211.173 14.88 210.36 14.0267 209.347 13.44C208.333 12.8533 207.24 12.56 206.067 12.56C204.893 12.56 203.8 12.8533 202.787 13.44C201.773 14 200.947 14.84 200.307 15.96C199.693 17.0533 199.387 18.36 199.387 19.88C199.387 21.4 199.693 22.7333 200.307 23.88C200.947 25.0267 201.773 25.9067 202.787 26.52C203.827 27.1067 204.92 27.4 206.067 27.4C207.24 27.4 208.333 27.1067 209.347 26.52C210.36 25.9333 211.173 25.08 211.787 23.96C212.427 22.8133 212.747 21.48 212.747 19.96ZM232.456 8.6C234.189 8.6 235.736 8.96 237.096 9.68C238.483 10.4 239.563 11.4667 240.336 12.88C241.109 14.2933 241.496 16 241.496 18V31H236.976V18.68C236.976 16.7067 236.483 15.2 235.496 14.16C234.509 13.0933 233.163 12.56 231.456 12.56C229.749 12.56 228.389 13.0933 227.376 14.16C226.389 15.2 225.896 16.7067 225.896 18.68V31H221.336V8.96H225.896V11.48C226.643 10.5733 227.589 9.86667 228.736 9.36C229.909 8.85333 231.149 8.6 232.456 8.6ZM243.793 19.96C243.793 17.6933 244.246 15.7067 245.153 14C246.086 12.2667 247.366 10.9333 248.993 10C250.619 9.06667 252.486 8.6 254.593 8.6C257.259 8.6 259.459 9.24 261.193 10.52C262.953 11.7733 264.139 13.5733 264.753 15.92H259.833C259.433 14.8267 258.793 13.9733 257.913 13.36C257.033 12.7467 255.926 12.44 254.593 12.44C252.726 12.44 251.233 13.1067 250.113 14.44C249.019 15.7467 248.473 17.5867 248.473 19.96C248.473 22.3333 249.019 24.1867 250.113 25.52C251.233 26.8533 252.726 27.52 254.593 27.52C257.233 27.52 258.979 26.36 259.833 24.04H264.753C264.113 26.28 262.913 28.0667 261.153 29.4C259.393 30.7067 257.206 31.36 254.593 31.36C252.486 31.36 250.619 30.8933 248.993 29.96C247.366 29 246.086 27.6667 245.153 25.96C244.246 24.2267 243.793 22.2267 243.793 19.96ZM287.497 19.44C287.497 20.2667 287.444 21.0133 287.337 21.68H270.497C270.63 23.44 271.284 24.8533 272.457 25.92C273.63 26.9867 275.07 27.52 276.777 27.52C279.23 27.52 280.964 26.4933 281.977 24.44H286.897C286.23 26.4667 285.017 28.1333 283.257 29.44C281.524 30.72 279.364 31.36 276.777 31.36C274.67 31.36 272.777 30.8933 271.097 29.96C269.444 29 268.137 27.6667 267.177 25.96C266.244 24.2267 265.777 22.2267 265.777 19.96C265.777 17.6933 266.23 15.7067 267.137 14C268.07 12.2667 269.364 10.9333 271.017 10C272.697 9.06667 274.617 8.6 276.777 8.6C278.857 8.6 280.71 9.05333 282.337 9.96C283.964 10.8667 285.23 12.1467 286.137 13.8C287.044 15.4267 287.497 17.3067 287.497 19.44ZM282.737 18C282.71 16.32 282.11 14.9733 280.937 13.96C279.764 12.9467 278.31 12.44 276.577 12.44C275.004 12.44 273.657 12.9467 272.537 13.96C271.417 14.9467 270.75 16.2933 270.537 18H282.737Z" fill="#4D4B58"/>
</svg>
