<svg width="108" height="17" viewBox="0 0 108 17" fill="none" xmlns="http://www.w3.org/2000/svg">
<path d="M6.58301 15.1846C5.33496 15.1846 4.25098 14.9268 3.33105 14.4111C2.41699 13.8896 1.70801 13.1543 1.2041 12.2051C0.706055 11.25 0.457031 10.1221 0.457031 8.82129V8.39062C0.457031 7.14844 0.697266 6.0498 1.17773 5.09473C1.66406 4.13379 2.35254 3.38086 3.24316 2.83594C4.13965 2.29102 5.20898 2.01855 6.45117 2.01855C7.3125 2.01855 8.12402 2.1416 8.88574 2.3877C9.64746 2.63379 10.3271 3.00879 10.9248 3.5127V6.60645H9.01758L8.75391 4.66406C8.46094 4.45898 8.12988 4.29785 7.76074 4.18066C7.3916 4.05762 6.97559 3.99609 6.5127 3.99609C5.42871 3.99609 4.57617 4.3916 3.95508 5.18262C3.33398 5.96777 3.02344 7.03125 3.02344 8.37305V8.82129C3.02344 10.1689 3.3457 11.2383 3.99023 12.0293C4.63477 12.8203 5.51367 13.2158 6.62695 13.2158C6.99609 13.2158 7.36523 13.1748 7.73438 13.0928C8.10938 13.0049 8.44922 12.8936 8.75391 12.7588L9.01758 10.957H10.9248V14.0156C10.4268 14.3438 9.80566 14.6221 9.06152 14.8506C8.31738 15.0732 7.49121 15.1846 6.58301 15.1846ZM15.0117 15.123C14.3828 15.123 13.8438 14.9863 13.3945 14.7129C12.9492 14.4395 12.6074 14.0605 12.3691 13.5762C12.1309 13.0879 12.0117 12.5273 12.0117 11.8945V11.7715C12.0117 11.1426 12.1309 10.5859 12.3691 10.1016C12.6074 9.61328 12.9492 9.23242 13.3945 8.95898C13.8438 8.68164 14.3789 8.54297 15 8.54297C15.625 8.54297 16.1602 8.67969 16.6055 8.95312C17.0547 9.22656 17.3984 9.60742 17.6367 10.0957C17.875 10.5801 17.9941 11.1387 17.9941 11.7715V11.8945C17.9941 12.5273 17.875 13.0879 17.6367 13.5762C17.3984 14.0605 17.0566 14.4395 16.6113 14.7129C16.166 14.9863 15.6328 15.123 15.0117 15.123ZM15.0117 13.8105C15.4531 13.8105 15.7754 13.6348 15.9785 13.2832C16.1855 12.9316 16.2891 12.4688 16.2891 11.8945V11.7715C16.2891 11.209 16.1855 10.75 15.9785 10.3945C15.7715 10.0391 15.4453 9.86133 15 9.86133C14.5547 9.86133 14.2305 10.0391 14.0273 10.3945C13.8242 10.75 13.7227 11.209 13.7227 11.7715V11.8945C13.7227 12.4727 13.8242 12.9375 14.0273 13.2891C14.2305 13.6367 14.5586 13.8105 15.0117 13.8105ZM18.6973 15V13.9746L19.5176 13.7988V9.86719L18.6094 9.69141V8.66016H21.1113L21.1875 9.56836C21.3984 9.24414 21.6582 8.99219 21.9668 8.8125C22.2793 8.63281 22.6348 8.54297 23.0332 8.54297C23.6582 8.54297 24.1484 8.74414 24.5039 9.14648C24.8633 9.54883 25.043 10.1797 25.043 11.0391V13.7988L25.8633 13.9746V15H22.5938V13.9746L23.3262 13.7988V11.0449C23.3262 10.6191 23.2402 10.3184 23.0684 10.1426C22.9004 9.96289 22.6523 9.87305 22.3242 9.87305C21.8477 9.87305 21.4824 10.0723 21.2285 10.4707V13.7988L21.9199 13.9746V15H18.6973ZM28.7051 15.123C28.1152 15.123 27.6602 14.9609 27.3398 14.6367C27.0234 14.3125 26.8652 13.7988 26.8652 13.0957V9.86133H25.9922V8.66016H26.8652V7.10742H28.5703V8.66016H29.7363V9.86133H28.5703V13.0898C28.5703 13.3359 28.6211 13.5117 28.7227 13.6172C28.8281 13.7227 28.9707 13.7754 29.1504 13.7754C29.2441 13.7754 29.3457 13.7695 29.4551 13.7578C29.5645 13.7422 29.6582 13.7266 29.7363 13.7109L29.8828 14.9473C29.7109 14.998 29.5215 15.0391 29.3145 15.0703C29.1074 15.1055 28.9043 15.123 28.7051 15.123ZM30.6562 15V13.9746L31.4766 13.7988V9.86719L30.5684 9.69141V8.66016H33.0703L33.1348 9.44531L33.1465 9.58594C33.459 8.89062 33.9277 8.54297 34.5527 8.54297C34.6543 8.54297 34.7637 8.55078 34.8809 8.56641C35.002 8.58203 35.1113 8.60547 35.209 8.63672L35.0273 10.2129L34.1777 10.166C33.9355 10.1543 33.7383 10.1953 33.5859 10.2891C33.4375 10.3828 33.3047 10.5176 33.1875 10.6934V13.7988L34.0078 13.9746V15H30.6562ZM38.625 15.123C37.9961 15.123 37.457 14.9863 37.0078 14.7129C36.5625 14.4395 36.2207 14.0605 35.9824 13.5762C35.7441 13.0879 35.625 12.5273 35.625 11.8945V11.7715C35.625 11.1426 35.7441 10.5859 35.9824 10.1016C36.2207 9.61328 36.5625 9.23242 37.0078 8.95898C37.457 8.68164 37.9922 8.54297 38.6133 8.54297C39.2383 8.54297 39.7734 8.67969 40.2188 8.95312C40.668 9.22656 41.0117 9.60742 41.25 10.0957C41.4883 10.5801 41.6074 11.1387 41.6074 11.7715V11.8945C41.6074 12.5273 41.4883 13.0879 41.25 13.5762C41.0117 14.0605 40.6699 14.4395 40.2246 14.7129C39.7793 14.9863 39.2461 15.123 38.625 15.123ZM38.625 13.8105C39.0664 13.8105 39.3887 13.6348 39.5918 13.2832C39.7988 12.9316 39.9023 12.4688 39.9023 11.8945V11.7715C39.9023 11.209 39.7988 10.75 39.5918 10.3945C39.3848 10.0391 39.0586 9.86133 38.6133 9.86133C38.168 9.86133 37.8438 10.0391 37.6406 10.3945C37.4375 10.75 37.3359 11.209 37.3359 11.7715V11.8945C37.3359 12.4727 37.4375 12.9375 37.6406 13.2891C37.8438 13.6367 38.1719 13.8105 38.625 13.8105ZM42.1641 15V13.9746L42.9902 13.7988V7.06641L42.0762 6.89062V5.85938H44.7012V13.7988L45.5273 13.9746V15H42.1641ZM49.2715 15V13.4619L50.6338 13.1982V4.01367L49.2715 3.75V2.20312H59.458V5.70996H57.4893L57.375 4.18066H53.2002V7.70508H57.6826V9.68262H53.2002V13.1982L54.5713 13.4619V15H49.2715ZM60.2227 15V13.9746L61.0488 13.7988V9.86719L60.1348 9.69141V8.66016H62.7598V13.7988L63.5801 13.9746V15H60.2227ZM60.9902 7.31836V5.85938H62.7598V7.31836H60.9902ZM64.0898 15V13.9746L64.9102 13.7988V9.86719L64.002 9.69141V8.66016H66.5039L66.5801 9.56836C66.791 9.24414 67.0508 8.99219 67.3594 8.8125C67.6719 8.63281 68.0273 8.54297 68.4258 8.54297C69.0508 8.54297 69.541 8.74414 69.8965 9.14648C70.2559 9.54883 70.4355 10.1797 70.4355 11.0391V13.7988L71.2559 13.9746V15H67.9863V13.9746L68.7188 13.7988V11.0449C68.7188 10.6191 68.6328 10.3184 68.4609 10.1426C68.293 9.96289 68.0449 9.87305 67.7168 9.87305C67.2402 9.87305 66.875 10.0723 66.6211 10.4707V13.7988L67.3125 13.9746V15H64.0898ZM73.9395 15.123C73.3105 15.123 72.8105 14.9551 72.4395 14.6191C72.0684 14.2793 71.8828 13.8184 71.8828 13.2363C71.8828 12.6426 72.123 12.1582 72.6035 11.7832C73.0879 11.4082 73.7988 11.2207 74.7363 11.2207H75.5742V10.752C75.5742 10.4473 75.4844 10.2012 75.3047 10.0137C75.1289 9.82227 74.8633 9.72656 74.5078 9.72656C74.3242 9.72656 74.1582 9.75 74.0098 9.79688C73.8652 9.83984 73.7344 9.90234 73.6172 9.98438L73.4824 10.8223H72.252L72.2285 9.17578C72.5605 8.98828 72.9199 8.83594 73.3066 8.71875C73.6934 8.60156 74.125 8.54297 74.6016 8.54297C75.4297 8.54297 76.084 8.73633 76.5645 9.12305C77.0449 9.50977 77.2852 10.0586 77.2852 10.7695V13.3828C77.2852 13.4688 77.2852 13.5527 77.2852 13.6348C77.2891 13.7168 77.2969 13.7988 77.3086 13.8809L77.9707 13.9746V15H75.8496C75.8066 14.8906 75.7637 14.7734 75.7207 14.6484C75.6777 14.5234 75.6465 14.3984 75.627 14.2734C75.4238 14.5312 75.1836 14.7383 74.9062 14.8945C74.6328 15.0469 74.3105 15.123 73.9395 15.123ZM74.3965 13.8574C74.6348 13.8574 74.8594 13.8047 75.0703 13.6992C75.2852 13.5898 75.4531 13.4473 75.5742 13.2715V12.2695H74.7305C74.3555 12.2695 74.0703 12.3555 73.875 12.5273C73.6836 12.6992 73.5879 12.9062 73.5879 13.1484C73.5879 13.375 73.6582 13.5508 73.7988 13.6758C73.9434 13.7969 74.1426 13.8574 74.3965 13.8574ZM78.5156 15V13.9746L79.3359 13.7988V9.86719L78.4277 9.69141V8.66016H80.9297L81.0059 9.56836C81.2168 9.24414 81.4766 8.99219 81.7852 8.8125C82.0977 8.63281 82.4531 8.54297 82.8516 8.54297C83.4766 8.54297 83.9668 8.74414 84.3223 9.14648C84.6816 9.54883 84.8613 10.1797 84.8613 11.0391V13.7988L85.6816 13.9746V15H82.4121V13.9746L83.1445 13.7988V11.0449C83.1445 10.6191 83.0586 10.3184 82.8867 10.1426C82.7188 9.96289 82.4707 9.87305 82.1426 9.87305C81.666 9.87305 81.3008 10.0723 81.0469 10.4707V13.7988L81.7383 13.9746V15H78.5156ZM89.1562 15.123C88.5469 15.123 88.0195 14.9863 87.5742 14.7129C87.1328 14.4395 86.793 14.0625 86.5547 13.582C86.3164 13.1016 86.1973 12.5488 86.1973 11.9238V11.748C86.1973 11.127 86.3184 10.5762 86.5605 10.0957C86.8027 9.61133 87.1445 9.23242 87.5859 8.95898C88.0273 8.68164 88.5469 8.54297 89.1445 8.54297C89.7109 8.54297 90.2012 8.63281 90.6152 8.8125C91.0293 8.98828 91.3652 9.19336 91.623 9.42773L91.6113 11.2441H90.3223L90.0938 10.1133C90 10.0195 89.8809 9.94336 89.7363 9.88477C89.5918 9.82617 89.4453 9.79688 89.2969 9.79688C88.8281 9.79688 88.4785 9.9707 88.248 10.3184C88.0215 10.6621 87.9082 11.1387 87.9082 11.748V11.9238C87.9082 12.5762 88.0312 13.0547 88.2773 13.3594C88.5234 13.6602 88.8203 13.8105 89.168 13.8105C89.4688 13.8105 89.709 13.7324 89.8887 13.5762C90.0723 13.416 90.1992 13.1914 90.2695 12.9023H91.7285L91.7461 12.9375C91.6445 13.6133 91.3945 14.1465 90.9961 14.5371C90.5977 14.9277 89.9844 15.123 89.1562 15.123ZM95.5488 15.123C94.9395 15.123 94.4082 14.9902 93.9551 14.7246C93.5059 14.4551 93.1562 14.0859 92.9062 13.6172C92.6602 13.1484 92.5371 12.6133 92.5371 12.0117V11.7773C92.5371 11.1484 92.6543 10.5918 92.8887 10.1074C93.123 9.61914 93.4531 9.23633 93.8789 8.95898C94.3086 8.67773 94.8145 8.53906 95.3965 8.54297C96.252 8.54297 96.9062 8.79492 97.3594 9.29883C97.8125 9.79883 98.0391 10.502 98.0391 11.4082V12.3398H94.3125L94.3008 12.375C94.332 12.793 94.4707 13.1367 94.7168 13.4062C94.9629 13.6758 95.3125 13.8105 95.7656 13.8105C96.0781 13.8105 96.3691 13.7715 96.6387 13.6934C96.9121 13.6113 97.1777 13.4922 97.4355 13.3359L97.8984 14.3906C97.6367 14.6016 97.3066 14.7773 96.9082 14.918C96.5137 15.0547 96.0605 15.123 95.5488 15.123ZM94.3242 11.209H96.4395V11.0566C96.4395 10.6738 96.3594 10.3711 96.1992 10.1484C96.043 9.92188 95.7852 9.80859 95.4258 9.80859C95.082 9.80859 94.8203 9.93945 94.6406 10.2012C94.4609 10.459 94.3496 10.7852 94.3066 11.1797L94.3242 11.209Z" fill="black"/>
<path d="M46.4766 15V13.5H48.1816V15H46.4766ZM102.715 16.8809V15.1494C101.988 15.0732 101.338 14.877 100.764 14.5605C100.189 14.2441 99.7412 13.7959 99.4189 13.2158C99.0967 12.6357 98.9443 11.915 98.9619 11.0537L98.9795 11.0098H101.476C101.476 11.7949 101.657 12.3574 102.021 12.6973C102.384 13.0371 102.841 13.207 103.392 13.207C103.925 13.207 104.332 13.0664 104.613 12.7852C104.9 12.498 105.044 12.1143 105.044 11.6338C105.044 11.1592 104.906 10.7725 104.631 10.4736C104.361 10.1748 103.896 9.89648 103.233 9.63867C102.366 9.32227 101.648 8.98828 101.08 8.63672C100.518 8.2793 100.096 7.86035 99.8145 7.37988C99.5391 6.89355 99.4014 6.2959 99.4014 5.58691C99.4014 4.60254 99.7148 3.79687 100.342 3.16992C100.975 2.53711 101.824 2.16504 102.891 2.05371V0.164062H104.288V2.08008C105.313 2.23242 106.119 2.66309 106.705 3.37207C107.297 4.0752 107.587 4.99219 107.575 6.12305L107.549 6.16699H105.053C105.053 5.47559 104.909 4.94238 104.622 4.56738C104.335 4.19238 103.948 4.00488 103.462 4.00488C102.958 4.00488 102.58 4.15137 102.328 4.44434C102.082 4.73145 101.959 5.11523 101.959 5.5957C101.959 6.05273 102.088 6.4248 102.346 6.71191C102.609 6.99316 103.09 7.27148 103.787 7.54688C104.648 7.88672 105.36 8.23828 105.923 8.60156C106.491 8.95898 106.913 9.37793 107.188 9.8584C107.47 10.3389 107.61 10.9248 107.61 11.6162C107.61 12.6299 107.294 13.4443 106.661 14.0596C106.034 14.6689 105.185 15.0293 104.112 15.1406V16.8809H102.715Z" fill="#04F81C"/>
</svg>
